<svg width="160" height="40" viewBox="0 0 160 40" fill="none" xmlns="http://www.w3.org/2000/svg">
<path fill-rule="evenodd" clip-rule="evenodd" d="M68.3174 29.204V13.5499H72.6997V8.73153H68.3174V0.872314H62.1474V8.73153H58.3538V13.5499H62.1474V29.204H68.3174ZM6.21366 18.3682V29.2041H0V8.73158H6.21366V11.7082C6.72238 10.6518 7.44913 9.81659 8.3939 9.2027C9.41134 8.61737 10.5015 8.3247 11.6642 8.3247C14.9637 8.3247 17.1948 9.52393 18.3576 11.9224C19.8837 9.49537 21.9549 8.28187 24.5712 8.28187C27.1875 8.28187 29.186 9.08849 30.5669 10.7017C31.9477 12.315 32.6381 14.6064 32.6381 17.5759V29.2041H26.4898V18.2826C26.4898 17.0262 26.1773 16.034 25.5523 15.3059C24.8983 14.5778 24.0407 14.2138 22.9797 14.2138C21.9186 14.2138 21.0683 14.5564 20.4288 15.2417C19.7892 15.9269 19.4695 16.9691 19.4695 18.3682V29.2041H13.2558V18.1541C13.1977 16.9263 12.8561 15.9626 12.2311 15.2631C11.5916 14.5635 10.7631 14.2138 9.74564 14.2138C8.7282 14.2138 7.88517 14.5493 7.21657 15.2203C6.54797 15.8912 6.21366 16.9406 6.21366 18.3682ZM57.4981 8.73158L44.6348 39.2476H38.0723L43.0868 27.1054L35.0417 8.73158H41.6479L46.2481 20.3384L50.892 8.73158H57.4981ZM95.2922 25.4778C93.3591 28.2618 90.1832 29.6466 85.7646 29.6323C82.6978 29.6323 80.1105 28.6401 78.003 26.6556C75.9245 24.6427 74.8853 22.0586 74.8853 18.9035C74.8853 15.7484 75.9245 13.1858 78.003 11.2156C80.0815 9.24545 82.6542 8.26751 85.721 8.28179C88.7879 8.28179 91.3387 9.28115 93.3736 11.2799C95.4085 13.2786 96.4332 15.8769 96.4478 19.0748C96.4478 19.1034 96.4187 19.7315 96.3605 20.9593H81.0771C81.1934 22.0443 81.7603 22.8867 82.7777 23.4863C83.7951 24.0859 84.9434 24.3857 86.2225 24.3857C88.2137 24.3857 89.7326 23.7432 90.7792 22.4584L95.2922 25.4778ZM90.1905 17.1475H81.1643C81.3969 16.034 81.9783 15.1631 82.9085 14.5349C83.8097 13.9068 84.7835 13.607 85.83 13.6355C86.8765 13.6641 87.8286 13.9782 88.6861 14.5778C89.5437 15.1774 90.0451 16.034 90.1905 17.1475ZM113.088 28.9043C111.911 29.3897 110.785 29.6181 109.709 29.5896C106.846 29.5896 104.36 28.6045 102.253 26.6343C100.145 24.6642 99.0913 22.1015 99.0913 18.9464C99.0913 15.7913 100.181 13.2287 102.362 11.2585C104.542 9.28836 106.991 8.29615 109.709 8.28187C110.814 8.28187 111.947 8.51743 113.11 8.98856C114.273 9.45968 115.167 10.1307 115.792 11.0015V8.73158H121.94V29.2041H115.792V26.8699C115.167 27.7407 114.266 28.4189 113.088 28.9043ZM110.712 23.8075C109.302 23.8075 108.088 23.3507 107.071 22.437C106.024 21.5233 105.501 20.3669 105.501 18.9678C105.501 17.583 106.024 16.4194 107.071 15.4772C108.205 14.5492 109.447 14.0852 110.799 14.0852C112.151 14.0852 113.321 14.5421 114.309 15.4558C115.298 16.3695 115.792 17.5401 115.792 18.9678C115.792 20.3954 115.298 21.559 114.309 22.4584C113.321 23.3578 112.122 23.8075 110.712 23.8075ZM133.523 18.3682V29.2041H127.309V8.73158H133.523V11.7082C134.031 10.6518 134.758 9.81659 135.703 9.2027C136.72 8.61737 137.81 8.3247 138.973 8.3247C142.273 8.3247 144.504 9.52393 145.666 11.9224C147.193 9.49537 149.264 8.28187 151.88 8.28187C154.496 8.28187 156.495 9.08849 157.876 10.7017C159.257 12.315 159.947 14.6064 159.947 17.5759V29.2041H153.799V18.2826C153.799 17.0262 153.486 16.034 152.861 15.3059C152.207 14.5778 151.35 14.2138 150.288 14.2138C149.227 14.2138 148.377 14.5564 147.738 15.2417C147.098 15.9269 146.778 16.9691 146.778 18.3682V29.2041H140.565V18.1541C140.507 16.9263 140.165 15.9626 139.54 15.2631C138.9 14.5635 138.072 14.2138 137.054 14.2138C136.037 14.2138 135.194 14.5493 134.525 15.2203C133.857 15.8912 133.523 16.9406 133.523 18.3682Z" fill="white"/>
</svg>
